<svg width="56" height="56" fill="none" xmlns="http://www.w3.org/2000/svg"><g clip-path="url(#a)"><path d="M4 4h48v25H4V4z" fill="#C4C4C4"/><path d="M4 4h48v25H4V4z" fill="url(#b)"/><path fill-rule="evenodd" clip-rule="evenodd" d="M52 28H4v24l1.6-1h44.8l1.6 1V28zM28.1 52a13.1 13.1 0 0 0-.2 0h.2z" fill="#00B2FF"/><path fill-rule="evenodd" clip-rule="evenodd" d="m4 52 14.53-24h18.94L52 52H28.1a13.1 13.1 0 0 0-.2 0H4z" fill="url(#c)"/><path d="M28 12.37 18.54 28h18.93L28 12.37z" fill="url(#d)"/></g><defs><linearGradient id="b" x1="44.24" y1="-15.43" x2="-7.52" y2="41.72" gradientUnits="userSpaceOnUse"><stop stop-color="#FFF11D"/><stop offset="1" stop-color="#FFB800"/></linearGradient><linearGradient id="c" x1="46.73" y1="52.06" x2="-52.28" y2="9.84" gradientUnits="userSpaceOnUse"><stop stop-color="#4643B9"/><stop offset="1" stop-color="#1E8AFF"/></linearGradient><linearGradient id="d" x1="21.32" y1="14.14" x2="53.47" y2="53.41" gradientUnits="userSpaceOnUse"><stop stop-color="#FF002E"/><stop offset="1" stop-color="#FFADA1"/></linearGradient><clipPath id="a"><circle cx="28" cy="28" r="24"/></clipPath></defs></svg>